<svg width="533" height="533" viewBox="0 0 533 533" fill="none" xmlns="http://www.w3.org/2000/svg">
<rect width="533" height="533" fill="black"/>
<path fill-rule="evenodd" clip-rule="evenodd" d="M130 111.683V145.366L140.385 145.532C146.098 145.624 155.96 146.344 162.302 147.133L173.831 148.567L178.859 138.584C181.625 133.095 184.06 128.397 184.271 128.145C185.433 126.77 227.356 138.379 243.569 144.565C262.408 151.754 262.548 151.859 270.556 164.498C306.019 220.481 325.397 292.261 320.964 351.217L319.599 369.362L303.433 379.8C284.898 391.77 258.151 404.93 237.261 412.361L222.866 417.483L214.278 404.192C209.557 396.884 203.735 387.05 201.343 382.341C197.424 374.629 196.465 373.913 191.686 375.13C177.188 378.824 159.145 381.96 145.331 383.185L130 384.545V419.773V455L193.796 454.949C285.742 454.876 303.853 452.521 336.72 436.363C365.815 422.06 385.83 399 396.582 367.391L402 351.46V267.642C402 175.059 401.753 172.766 388.807 145.589C379.918 126.924 357.461 104.907 337.662 95.4421C306.994 80.7808 299.028 79.7474 209.622 78.8224L130 78V111.683ZM178.465 253.582C165.227 261.779 159.645 271.728 159.716 286.999C159.867 319.159 192.471 336.075 215.07 315.72C239.609 293.616 225.823 249.876 194.327 249.9C188.095 249.904 182.19 251.275 178.465 253.582Z" fill="white"/>
</svg>
